<svg width="93" height="28" viewBox="0 0 93 28" fill="none" xmlns="http://www.w3.org/2000/svg">
<path d="M0.120117 14.2223C0.120117 6.89118 6.0445 0.948242 13.3527 0.948242H79.2914C86.5996 0.948242 92.524 6.89118 92.524 14.2223V14.6722C92.524 22.0033 86.5996 27.9463 79.2914 27.9463H13.3527C6.0445 27.9463 0.120117 22.0033 0.120117 14.6722V14.2223Z" fill="#0A0A0A"/>
<path d="M86.0198 14.2224C86.0198 18.1986 82.8066 21.4219 78.8428 21.4219C74.8791 21.4219 71.6658 18.1986 71.6658 14.2224C71.6658 10.2463 74.8791 7.02295 78.8428 7.02295C82.8066 7.02295 86.0198 10.2463 86.0198 14.2224Z" fill="#100C11"/>
<path d="M83.1041 14.3348C83.1041 16.6335 81.2464 18.497 78.9549 18.497C76.6634 18.497 74.8057 16.6335 74.8057 14.3348C74.8057 12.0361 76.6634 10.1726 78.9549 10.1726C81.2464 10.1726 83.1041 12.0361 83.1041 14.3348Z" fill="#1A1E38"/>
<path d="M81.7585 14.3348C81.7585 15.888 80.5034 17.147 78.9549 17.147C77.4065 17.147 76.1514 15.888 76.1514 14.3348C76.1514 12.7815 77.4065 11.5225 78.9549 11.5225C80.5034 11.5225 81.7585 12.7815 81.7585 14.3348Z" fill="#150A24"/>
<path d="M79.9642 12.9848C79.9642 13.2955 79.5123 13.5473 78.9549 13.5473C78.3976 13.5473 77.9457 13.2955 77.9457 12.9848C77.9457 12.6741 78.3976 12.4224 78.9549 12.4224C79.5123 12.4224 79.9642 12.6741 79.9642 12.9848Z" fill="#8A99E2"/>
<path d="M79.74 15.9096C79.74 16.2203 79.3885 16.4721 78.955 16.4721C78.5214 16.4721 78.17 16.2203 78.17 15.9096C78.17 15.5989 78.5214 15.3472 78.955 15.3472C79.3885 15.3472 79.74 15.5989 79.74 15.9096Z" fill="#52848D"/>
</svg>
