<svg width="14" height="11" viewBox="0 0 14 11" fill="none" xmlns="http://www.w3.org/2000/svg">
<path id="Vector" d="M7.51042 1.81696C7.7875 1.64509 7.97222 1.33326 7.97222 0.982143C7.97222 0.439509 7.53715 0 7 0C6.46285 0 6.02778 0.439509 6.02778 0.982143C6.02778 1.33571 6.2125 1.64509 6.48958 1.81696L5.09687 4.6308C4.87569 5.07768 4.30208 5.20536 3.91563 4.89353L1.75 3.14286C1.87153 2.97835 1.94444 2.77455 1.94444 2.55357C1.94444 2.01094 1.50938 1.57143 0.972222 1.57143C0.435069 1.57143 0 2.01094 0 2.55357C0 3.09621 0.435069 3.53571 0.972222 3.53571C0.977083 3.53571 0.984375 3.53571 0.989236 3.53571L2.1 9.70848C2.23368 10.4549 2.87778 11 3.63125 11H10.3688C11.1198 11 11.7639 10.4574 11.9 9.70848L13.0108 3.53571C13.0156 3.53571 13.0229 3.53571 13.0278 3.53571C13.5649 3.53571 14 3.09621 14 2.55357C14 2.01094 13.5649 1.57143 13.0278 1.57143C12.4906 1.57143 12.0556 2.01094 12.0556 2.55357C12.0556 2.77455 12.1285 2.97835 12.25 3.14286L10.0844 4.89353C9.69792 5.20536 9.12431 5.07768 8.90313 4.6308L7.51042 1.81696Z" fill="#EF9C60"/>
</svg>
