<svg width="18" height="18" viewBox="0 0 18 18" fill="none" xmlns="http://www.w3.org/2000/svg">
<path id="Icon" d="M9 11.4C6.34903 11.4 4.2 9.25097 4.2 6.6V2.15556C4.2 1.82448 4.2 1.65894 4.24825 1.52638C4.32913 1.30417 4.50417 1.12912 4.72638 1.04825C4.85894 1 5.02448 1 5.35556 1H12.6444C12.9755 1 13.1411 1 13.2736 1.04825C13.4958 1.12912 13.6709 1.30417 13.7518 1.52638C13.8 1.65894 13.8 1.82448 13.8 2.15556V6.6C13.8 9.25097 11.651 11.4 9 11.4ZM9 11.4V13.8M13.8 2.6H15.8C16.1728 2.6 16.3591 2.6 16.5061 2.6609C16.7022 2.74209 16.8579 2.89783 16.9391 3.09385C17 3.24087 17 3.42725 17 3.8V4.2C17 4.94398 17 5.31597 16.9182 5.62117C16.6963 6.44939 16.0494 7.0963 15.2212 7.31822C14.916 7.4 14.544 7.4 13.8 7.4M4.2 2.6H2.2C1.82725 2.6 1.64087 2.6 1.49385 2.6609C1.29783 2.74209 1.14209 2.89783 1.0609 3.09385C1 3.24087 1 3.42725 1 3.8V4.2C1 4.94398 1 5.31597 1.08178 5.62117C1.3037 6.44939 1.95061 7.0963 2.77883 7.31822C3.08403 7.4 3.45602 7.4 4.2 7.4M5.35556 17H12.6444C12.8408 17 13 16.8408 13 16.6444C13 15.0735 11.7265 13.8 10.1556 13.8H7.84444C6.2735 13.8 5 15.0735 5 16.6444C5 16.8408 5.15919 17 5.35556 17Z" stroke="#A466D4" stroke-width="1.5" stroke-linecap="round" stroke-linejoin="round"/>
</svg>
