<svg width="20" height="18" viewBox="0 0 20 18" fill="none" xmlns="http://www.w3.org/2000/svg">
<path d="M5.95 8.11111H3.34C2.83595 8.11111 2.58393 8.11111 2.39141 8.20799C2.22206 8.29322 2.08438 8.4292 1.99809 8.59645C1.9 8.7866 1.9 9.03551 1.9 9.53333V17M14.05 8.11111H16.66C17.164 8.11111 17.4161 8.11111 17.6086 8.20799C17.7779 8.29322 17.9156 8.4292 18.0019 8.59645C18.1 8.7866 18.1 9.03551 18.1 9.53333V17M14.05 17V3.84444C14.05 2.8488 14.05 2.35097 13.8538 1.97068C13.6812 1.63617 13.4059 1.36421 13.0672 1.19377C12.6821 1 12.1781 1 11.17 1H8.83C7.82191 1 7.31786 1 6.93282 1.19377C6.59413 1.36421 6.31876 1.63617 6.14619 1.97068C5.95 2.35097 5.95 2.8488 5.95 3.84444V17M19 17H1M9.1 4.55556H10.9M9.1 8.11111H10.9M9.1 11.6667H10.9" stroke="black" stroke-opacity="0.24" stroke-width="1.5" stroke-linecap="round" stroke-linejoin="round"/>
</svg>
