<svg width="18" height="18" viewBox="0 0 18 18" fill="none" xmlns="http://www.w3.org/2000/svg">
<path id="Icon" d="M14.2246 1C17.9251 4.66022 17.9251 10.5946 14.2246 14.2548C10.6808 17.76 5.02837 17.9085 1.30596 14.7002C1.14362 14.5602 1.06246 14.4903 1.02582 14.3946C0.994989 14.3142 0.991537 14.2147 1.01671 14.1323C1.04664 14.0344 1.12773 13.9542 1.28992 13.7938L3.11524 11.9884M13.7041 7.62742C13.7041 11.0033 10.9372 13.74 7.5242 13.74C4.11115 13.74 1.34433 11.0033 1.34433 7.62742C1.34433 4.25155 4.11115 1.51486 7.5242 1.51486C10.9372 1.51486 13.7041 4.25155 13.7041 7.62742Z" stroke="#A466D4" stroke-width="1.5" stroke-linecap="round" stroke-linejoin="round"/>
</svg>
