<svg width="16" height="18" viewBox="0 0 16 18" fill="none" xmlns="http://www.w3.org/2000/svg">
<path id="Icon" d="M10.4812 14.6C10.4812 15.9255 9.37034 17 8 17C6.62966 17 5.51878 15.9255 5.51878 14.6M9.48584 4.39085C9.84602 4.03091 10.0677 3.54049 10.0677 3C10.0677 1.89543 9.14195 1 8 1C6.85805 1 5.93232 1.89543 5.93232 3C5.93232 3.54049 6.15398 4.03091 6.51416 4.39085M12.9624 8.36C12.9624 7.2567 12.4396 6.19859 11.509 5.41844C10.5783 4.63828 9.31612 4.2 8 4.2C6.68388 4.2 5.42167 4.63828 4.49103 5.41844C3.56039 6.19859 3.03757 7.2567 3.03757 8.36C3.03757 10.1854 2.56955 11.5205 1.98558 12.4757C1.32002 13.5645 0.987233 14.1089 1.00037 14.2389C1.01541 14.3877 1.04309 14.4346 1.16784 14.5229C1.27687 14.6 1.82467 14.6 2.92028 14.6H13.0797C14.1753 14.6 14.7231 14.6 14.8322 14.5229C14.9569 14.4346 14.9846 14.3877 14.9996 14.2389C15.0128 14.1089 14.68 13.5645 14.0144 12.4757C13.4305 11.5205 12.9624 10.1854 12.9624 8.36Z" stroke="#A466D4" stroke-width="1.5" stroke-linecap="round" stroke-linejoin="round"/>
</svg>
