<svg width="16" height="18" viewBox="0 0 16 18" fill="none" xmlns="http://www.w3.org/2000/svg">
<path d="M5.96281 14.8969L6.41957 15.9484C6.55536 16.2615 6.77695 16.5274 7.05748 16.7141C7.33801 16.9007 7.66542 17.0001 8 17C8.33458 17.0001 8.66199 16.9007 8.94252 16.7141C9.22305 16.5274 9.44465 16.2615 9.58043 15.9484L10.0372 14.8969C10.1998 14.5238 10.4733 14.2127 10.8187 14.008C11.1663 13.8027 11.5685 13.7153 11.9676 13.7582L13.0852 13.88C13.4178 13.916 13.7536 13.8525 14.0517 13.6971C14.3498 13.5417 14.5974 13.3011 14.7646 13.0044C14.932 12.708 15.0117 12.3682 14.9941 12.0263C14.9766 11.6844 14.8624 11.355 14.6656 11.0782L14.0039 10.1476C13.7683 9.8137 13.6424 9.41185 13.6444 9C13.6443 8.58927 13.7714 8.18908 14.0074 7.85689L14.6691 6.92622C14.8659 6.6494 14.98 6.32006 14.9976 5.97814C15.0152 5.63622 14.9354 5.29643 14.7681 5C14.6009 4.70339 14.3532 4.46279 14.0551 4.30738C13.757 4.15197 13.4213 4.08842 13.0886 4.12444L11.971 4.24622C11.5719 4.28913 11.1698 4.2017 10.8222 3.99644C10.4761 3.7906 10.2025 3.47789 10.0407 3.10311L9.58043 2.05156C9.44465 1.73854 9.22305 1.47257 8.94252 1.28592C8.66199 1.09927 8.33458 0.999944 8 1C7.66542 0.999944 7.33801 1.09927 7.05748 1.28592C6.77695 1.47257 6.55536 1.73854 6.41957 2.05156L5.96281 3.10311C5.80098 3.47789 5.5274 3.7906 5.18128 3.99644C4.83367 4.2017 4.43154 4.28913 4.03243 4.24622L2.91137 4.12444C2.5787 4.08842 2.24296 4.15197 1.94486 4.30738C1.64677 4.46279 1.39912 4.70339 1.23195 5C1.06456 5.29643 0.984815 5.63622 1.00239 5.97814C1.01996 6.32006 1.13409 6.6494 1.33094 6.92622L1.99264 7.85689C2.22861 8.18908 2.35569 8.58927 2.35561 9C2.35569 9.41073 2.22861 9.81092 1.99264 10.1431L1.33094 11.0738C1.13409 11.3506 1.01996 11.6799 1.00239 12.0219C0.984815 12.3638 1.06456 12.7036 1.23195 13C1.39929 13.2965 1.64696 13.5369 1.94501 13.6923C2.24307 13.8477 2.57872 13.9113 2.91137 13.8756L4.02896 13.7538C4.42806 13.7109 4.8302 13.7983 5.17781 14.0036C5.52522 14.2088 5.80007 14.5216 5.96281 14.8969Z" stroke="#A466D4" stroke-width="1.5" stroke-linecap="round" stroke-linejoin="round"/>
<path d="M7.9986 11.4C9.29349 11.4 10.3432 10.3255 10.3432 9C10.3432 7.67452 9.29349 6.6 7.9986 6.6C6.70372 6.6 5.65401 7.67452 5.65401 9C5.65401 10.3255 6.70372 11.4 7.9986 11.4Z" stroke="#A466D4" stroke-width="1.5" stroke-linecap="round" stroke-linejoin="round"/>
</svg>
