<svg width="11" height="7" viewBox="0 0 11 7" fill="none" xmlns="http://www.w3.org/2000/svg">
<g id="Vector">
<path d="M0 4.79952C0 4.48644 0.244989 4.23265 0.547198 4.23265H1.49566C1.79787 4.23265 2.04285 4.48644 2.04285 4.79952V6.43323C2.04285 6.7463 1.79787 7.00009 1.49566 7.00009H0.547197C0.244988 7.00009 0 6.7463 0 6.43323V4.79952Z" fill="white"/>
<path d="M0 4.79952C0 4.48644 0.244989 4.23265 0.547198 4.23265H1.49566C1.79787 4.23265 2.04285 4.48644 2.04285 4.79952V6.43323C2.04285 6.7463 1.79787 7.00009 1.49566 7.00009H0.547197C0.244988 7.00009 0 6.7463 0 6.43323V4.79952Z" fill="white"/>
<path d="M0 4.79952C0 4.48644 0.244989 4.23265 0.547198 4.23265H1.49566C1.79787 4.23265 2.04285 4.48644 2.04285 4.79952V6.43323C2.04285 6.7463 1.79787 7.00009 1.49566 7.00009H0.547197C0.244988 7.00009 0 6.7463 0 6.43323V4.79952Z" fill="white"/>
<path d="M2.98573 3.65998C2.98573 3.34691 3.23072 3.09312 3.53293 3.09312H4.48139C4.7836 3.09312 5.02859 3.34691 5.02859 3.65998V6.43323C5.02859 6.7463 4.7836 7.00009 4.48139 7.00009H3.53293C3.23072 7.00009 2.98573 6.7463 2.98573 6.43323V3.65998Z" fill="white"/>
<path d="M2.98573 3.65998C2.98573 3.34691 3.23072 3.09312 3.53293 3.09312H4.48139C4.7836 3.09312 5.02859 3.34691 5.02859 3.65998V6.43323C5.02859 6.7463 4.7836 7.00009 4.48139 7.00009H3.53293C3.23072 7.00009 2.98573 6.7463 2.98573 6.43323V3.65998Z" fill="white"/>
<path d="M2.98573 3.65998C2.98573 3.34691 3.23072 3.09312 3.53293 3.09312H4.48139C4.7836 3.09312 5.02859 3.34691 5.02859 3.65998V6.43323C5.02859 6.7463 4.7836 7.00009 4.48139 7.00009H3.53293C3.23072 7.00009 2.98573 6.7463 2.98573 6.43323V3.65998Z" fill="white"/>
<path d="M5.97141 2.03208C5.97141 1.71901 6.2164 1.46522 6.51861 1.46522H7.46707C7.76928 1.46522 8.01427 1.71901 8.01427 2.03208V6.43323C8.01427 6.7463 7.76928 7.0001 7.46707 7.0001H6.51861C6.2164 7.0001 5.97141 6.74631 5.97141 6.43323V2.03208Z" fill="white"/>
<path d="M5.97141 2.03208C5.97141 1.71901 6.2164 1.46522 6.51861 1.46522H7.46707C7.76928 1.46522 8.01427 1.71901 8.01427 2.03208V6.43323C8.01427 6.7463 7.76928 7.0001 7.46707 7.0001H6.51861C6.2164 7.0001 5.97141 6.74631 5.97141 6.43323V2.03208Z" fill="white"/>
<path d="M5.97141 2.03208C5.97141 1.71901 6.2164 1.46522 6.51861 1.46522H7.46707C7.76928 1.46522 8.01427 1.71901 8.01427 2.03208V6.43323C8.01427 6.7463 7.76928 7.0001 7.46707 7.0001H6.51861C6.2164 7.0001 5.97141 6.74631 5.97141 6.43323V2.03208Z" fill="white"/>
<path d="M8.95715 0.566986C8.95715 0.253915 9.20213 0.00012207 9.50434 0.00012207H10.4528C10.755 0.00012207 11 0.253916 11 0.566987V6.43326C11 6.74633 10.755 7.00012 10.4528 7.00012H9.50434C9.20213 7.00012 8.95715 6.74633 8.95715 6.43326V0.566986Z" fill="white"/>
<path d="M8.95715 0.566986C8.95715 0.253915 9.20213 0.00012207 9.50434 0.00012207H10.4528C10.755 0.00012207 11 0.253916 11 0.566987V6.43326C11 6.74633 10.755 7.00012 10.4528 7.00012H9.50434C9.20213 7.00012 8.95715 6.74633 8.95715 6.43326V0.566986Z" fill="white"/>
<path d="M8.95715 0.566986C8.95715 0.253915 9.20213 0.00012207 9.50434 0.00012207H10.4528C10.755 0.00012207 11 0.253916 11 0.566987V6.43326C11 6.74633 10.755 7.00012 10.4528 7.00012H9.50434C9.20213 7.00012 8.95715 6.74633 8.95715 6.43326V0.566986Z" fill="white"/>
</g>
</svg>
