<svg width="14" height="14" viewBox="0 0 14 14" fill="none" xmlns="http://www.w3.org/2000/svg">
<path id="Icon" d="M9.00323 4.53409C8.7547 4.28556 8.63043 4.1613 8.58388 4.018C8.54292 3.89196 8.54292 3.75619 8.58388 3.63014C8.63043 3.48685 8.7547 3.36259 9.00323 3.11406L10.7845 1.33277C10.3118 1.119 9.78709 1 9.23457 1C7.15498 1 5.46914 2.68584 5.46914 4.76543C5.46914 5.07359 5.50616 5.37311 5.57599 5.65977C5.65077 5.96675 5.68816 6.12024 5.68152 6.21721C5.67457 6.31873 5.65944 6.37274 5.61262 6.46308C5.5679 6.54938 5.48223 6.63506 5.31088 6.80641L1.38992 10.7274C0.870026 11.2473 0.870026 12.0902 1.38992 12.6101C1.90982 13.13 2.75274 13.13 3.27264 12.6101L7.19359 8.68912C7.36494 8.51777 7.45062 8.43209 7.53692 8.38738C7.62726 8.34056 7.68127 8.32543 7.78279 8.31848C7.87976 8.31184 8.03325 8.34923 8.34022 8.42401C8.62689 8.49384 8.92641 8.53086 9.23457 8.53086C11.3142 8.53086 13 6.84502 13 4.76543C13 4.21291 12.881 3.68819 12.6672 3.21549L10.8859 4.99677C10.6374 5.2453 10.5131 5.36956 10.3699 5.41612C10.2438 5.45708 10.108 5.45708 9.982 5.41612C9.8387 5.36956 9.71444 5.2453 9.46591 4.99677L9.00323 4.53409Z" stroke="white" stroke-width="1.5" stroke-linecap="round" stroke-linejoin="round"/>
</svg>
